<svg width="1440" height="420" viewBox="0 0 1440 420" fill="none" xmlns="http://www.w3.org/2000/svg" role="img" aria-labelledby="title desc">
  <title id="title">Team Collab Skills</title>
  <desc id="desc">A polished banner for the team-collab-skills repository.</desc>
  <defs>
    <linearGradient id="bg" x1="0" y1="0" x2="1440" y2="420" gradientUnits="userSpaceOnUse">
      <stop offset="0" stop-color="#07111F"/>
      <stop offset="0.52" stop-color="#123B46"/>
      <stop offset="1" stop-color="#F59E0B"/>
    </linearGradient>
    <radialGradient id="glowA" cx="0" cy="0" r="1" gradientUnits="userSpaceOnUse" gradientTransform="translate(265 120) rotate(35) scale(430 210)">
      <stop stop-color="#38BDF8" stop-opacity="0.55"/>
      <stop offset="1" stop-color="#38BDF8" stop-opacity="0"/>
    </radialGradient>
    <radialGradient id="glowB" cx="0" cy="0" r="1" gradientUnits="userSpaceOnUse" gradientTransform="translate(1115 315) rotate(-18) scale(520 260)">
      <stop stop-color="#FDE68A" stop-opacity="0.65"/>
      <stop offset="1" stop-color="#FDE68A" stop-opacity="0"/>
    </radialGradient>
    <filter id="shadow" x="-20%" y="-20%" width="140%" height="140%" color-interpolation-filters="sRGB">
      <feDropShadow dx="0" dy="18" stdDeviation="18" flood-color="#020617" flood-opacity="0.35"/>
    </filter>
  </defs>
  <rect width="1440" height="420" rx="36" fill="url(#bg)"/>
  <rect width="1440" height="420" rx="36" fill="url(#glowA)"/>
  <rect width="1440" height="420" rx="36" fill="url(#glowB)"/>
  <path d="M0 318C166 248 308 248 488 315C706 396 827 304 1009 225C1184 148 1322 164 1440 211V420H0V318Z" fill="#07111F" fill-opacity="0.45"/>
  <path d="M102 94H1338" stroke="white" stroke-opacity="0.13" stroke-width="1"/>
  <path d="M102 326H1338" stroke="white" stroke-opacity="0.13" stroke-width="1"/>
  <g opacity="0.38">
    <circle cx="113" cy="94" r="5" fill="#E0F2FE"/>
    <circle cx="324" cy="94" r="5" fill="#E0F2FE"/>
    <circle cx="536" cy="94" r="5" fill="#E0F2FE"/>
    <circle cx="748" cy="94" r="5" fill="#E0F2FE"/>
    <circle cx="960" cy="94" r="5" fill="#E0F2FE"/>
    <circle cx="1172" cy="94" r="5" fill="#E0F2FE"/>
    <circle cx="1327" cy="94" r="5" fill="#E0F2FE"/>
    <path d="M113 94H1327" stroke="#E0F2FE" stroke-width="2" stroke-dasharray="7 14"/>
  </g>
  <g filter="url(#shadow)">
    <rect x="108" y="128" width="230" height="164" rx="28" fill="#F8FAFC" fill-opacity="0.94"/>
    <rect x="395" y="128" width="230" height="164" rx="28" fill="#F8FAFC" fill-opacity="0.94"/>
    <rect x="682" y="128" width="230" height="164" rx="28" fill="#F8FAFC" fill-opacity="0.94"/>
    <rect x="969" y="128" width="230" height="164" rx="28" fill="#F8FAFC" fill-opacity="0.94"/>
    <rect x="1236" y="155" width="92" height="110" rx="24" fill="#F8FAFC" fill-opacity="0.9"/>
  </g>
  <g font-family="Inter, ui-sans-serif, system-ui, -apple-system, BlinkMacSystemFont, 'Segoe UI', sans-serif" font-weight="800" font-size="28" fill="#0F172A">
    <text x="147" y="205">Claude</text>
    <text x="443" y="205">Codex</text>
    <text x="719" y="205">Cursor</text>
    <text x="1012" y="205">VS Code</text>
  </g>
  <g font-family="Inter, ui-sans-serif, system-ui, -apple-system, BlinkMacSystemFont, 'Segoe UI', sans-serif" font-weight="700" font-size="18" fill="#334155">
    <text x="147" y="238">plugin + skills</text>
    <text x="443" y="238">marketplace</text>
    <text x="719" y="238">project rules</text>
    <text x="1012" y="238">instructions</text>
  </g>
  <g stroke="#0F766E" stroke-width="5" stroke-linecap="round" stroke-linejoin="round">
    <path d="M286 198L302 214L326 184"/>
    <path d="M573 198L589 214L613 184"/>
    <path d="M860 198L876 214L900 184"/>
    <path d="M1147 198L1163 214L1187 184"/>
  </g>
  <text x="108" y="63" fill="#CCFBF1" font-family="Inter, ui-sans-serif, system-ui, sans-serif" font-size="24" font-weight="800" letter-spacing="0.14em">TEAM COLLAB SKILLS</text>
  <text x="108" y="368" fill="white" font-family="Inter, ui-sans-serif, system-ui, sans-serif" font-size="54" font-weight="900">One protocol. Every agent.</text>
  <text x="806" y="366" fill="#FEF3C7" font-family="Inter, ui-sans-serif, system-ui, sans-serif" font-size="24" font-weight="700">handoff · checkpoint · docs governance · multi-tool adapters</text>
</svg>
