<svg width="1440" height="420" viewBox="0 0 1440 420" fill="none" xmlns="http://www.w3.org/2000/svg" role="img" aria-labelledby="title desc">
  <title id="title">Team Collab Skills multi-agent collaboration banner</title>
  <desc id="desc">A dark gradient banner showing a coordinator and worker agents collaborating through a file-backed wave from start through gate to merge, with supported tools in a compact badge strip.</desc>
  <defs>
    <linearGradient id="bg" x1="0" y1="0" x2="1440" y2="420" gradientUnits="userSpaceOnUse">
      <stop offset="0" stop-color="#07111F"/>
      <stop offset="0.55" stop-color="#123B46"/>
      <stop offset="1" stop-color="#F59E0B"/>
    </linearGradient>
    <radialGradient id="glowSky" cx="0" cy="0" r="1" gradientUnits="userSpaceOnUse" gradientTransform="translate(260 98) rotate(28) scale(420 220)">
      <stop stop-color="#38BDF8" stop-opacity="0.42"/>
      <stop offset="1" stop-color="#38BDF8" stop-opacity="0"/>
    </radialGradient>
    <radialGradient id="glowAmber" cx="0" cy="0" r="1" gradientUnits="userSpaceOnUse" gradientTransform="translate(1180 292) rotate(-18) scale(430 230)">
      <stop stop-color="#FDE68A" stop-opacity="0.58"/>
      <stop offset="1" stop-color="#FDE68A" stop-opacity="0"/>
    </radialGradient>
    <filter id="shadow" x="-20%" y="-30%" width="140%" height="160%" color-interpolation-filters="sRGB">
      <feDropShadow dx="0" dy="18" stdDeviation="18" flood-color="#020617" flood-opacity="0.32"/>
    </filter>
    <marker id="arrowTeal" markerWidth="10" markerHeight="10" refX="8" refY="5" orient="auto" markerUnits="strokeWidth">
      <path d="M1 1L9 5L1 9Z" fill="#14B8A6"/>
    </marker>
    <marker id="arrowAmber" markerWidth="10" markerHeight="10" refX="8" refY="5" orient="auto" markerUnits="strokeWidth">
      <path d="M1 1L9 5L1 9Z" fill="#FDE68A"/>
    </marker>
  </defs>

  <rect width="1440" height="420" rx="36" fill="url(#bg)"/>
  <rect width="1440" height="420" rx="36" fill="url(#glowSky)"/>
  <rect width="1440" height="420" rx="36" fill="url(#glowAmber)"/>
  <path d="M0 318C166 248 306 248 488 315C706 396 827 304 1009 225C1184 148 1322 164 1440 211V420H0V318Z" fill="#07111F" fill-opacity="0.46"/>
  <path d="M92 78H1348" stroke="#E0F2FE" stroke-opacity="0.14"/>
  <path d="M92 326H1348" stroke="#E0F2FE" stroke-opacity="0.14"/>
  <path d="M692 58C782 98 864 74 954 44C1044 14 1124 36 1192 92" stroke="#CCFBF1" stroke-opacity="0.24" stroke-width="2" stroke-dasharray="8 16"/>

  <g font-family="Inter, ui-sans-serif, system-ui, -apple-system, BlinkMacSystemFont, 'Segoe UI', sans-serif">
    <text x="96" y="64" fill="#CCFBF1" font-size="24" font-weight="800" letter-spacing="0.14em">TEAM COLLAB SKILLS</text>
    <text x="96" y="132" fill="#FFFFFF" font-size="54" font-weight="900">One protocol. Every agent.</text>
    <text x="98" y="176" fill="#FEF3C7" font-size="23" font-weight="700">multi-agent waves · handoff · checkpoint · gate · docs governance · every tool</text>

    <g filter="url(#shadow)">
      <rect x="842" y="78" width="236" height="80" rx="24" fill="#F8FAFC" fill-opacity="0.96"/>
      <rect x="780" y="194" width="176" height="72" rx="22" fill="#E0F2FE" fill-opacity="0.96"/>
      <rect x="1000" y="194" width="176" height="72" rx="22" fill="#CCFBF1" fill-opacity="0.96"/>
      <rect x="1172" y="116" width="164" height="70" rx="22" fill="#FEF3C7" fill-opacity="0.96"/>
      <rect x="758" y="276" width="586" height="78" rx="26" fill="#FEF3C7" fill-opacity="0.94"/>
    </g>

    <g stroke-linecap="round" stroke-linejoin="round" fill="none">
      <path d="M960 158C948 184 916 187 880 194" stroke="#38BDF8" stroke-width="4" marker-end="url(#arrowTeal)"/>
      <path d="M982 158C1002 182 1036 185 1080 194" stroke="#14B8A6" stroke-width="4" marker-end="url(#arrowTeal)"/>
      <path d="M1078 112C1106 108 1136 116 1172 138" stroke="#FDE68A" stroke-width="4" marker-end="url(#arrowAmber)"/>
      <path d="M868 266V286" stroke="#38BDF8" stroke-width="4" marker-end="url(#arrowTeal)"/>
      <path d="M1088 266V286" stroke="#14B8A6" stroke-width="4" marker-end="url(#arrowTeal)"/>
      <path d="M1254 186V286" stroke="#FDE68A" stroke-width="4" marker-end="url(#arrowAmber)"/>
    </g>

    <g fill="#0F172A">
      <text x="882" y="112" font-size="18" font-weight="800" letter-spacing="0.08em">COORDINATOR</text>
      <text x="882" y="138" font-size="17" font-weight="700" fill="#334155">plans the wave</text>
      <circle cx="858" cy="118" r="10" fill="#14B8A6"/>
      <circle cx="1070" cy="118" r="6" fill="#F59E0B"/>

      <text x="814" y="223" font-size="20" font-weight="800">implementer</text>
      <text x="814" y="247" font-size="15" font-weight="700" fill="#334155">start → checkpoint</text>
      <circle cx="798" cy="231" r="7" fill="#38BDF8"/>

      <text x="1034" y="223" font-size="20" font-weight="800">reviewer</text>
      <text x="1034" y="247" font-size="15" font-weight="700" fill="#334155">verdict → gate</text>
      <circle cx="1018" cy="231" r="7" fill="#0F766E"/>

      <text x="1206" y="145" font-size="20" font-weight="800">tester</text>
      <text x="1206" y="169" font-size="15" font-weight="700" fill="#334155">checks CI</text>
      <circle cx="1190" cy="153" r="7" fill="#F59E0B"/>
    </g>

    <g>
      <text x="790" y="309" fill="#0F172A" font-size="18" font-weight="900" letter-spacing="0.1em">FILE-BACKED WAVE</text>
      <text x="790" y="333" fill="#334155" font-size="15" font-weight="700">PRD · pr-plan · status · claims · reviews · messages · digests</text>
      <rect x="1014" y="294" width="80" height="32" rx="16" fill="#0F766E"/>
      <rect x="1114" y="294" width="76" height="32" rx="16" fill="#123B46"/>
      <rect x="1210" y="294" width="82" height="32" rx="16" fill="#F59E0B"/>
      <path d="M1098 310H1110" stroke="#0F172A" stroke-opacity="0.45" stroke-width="2" stroke-linecap="round"/>
      <path d="M1194 310H1206" stroke="#0F172A" stroke-opacity="0.45" stroke-width="2" stroke-linecap="round"/>
      <text x="1036" y="315" fill="#FFFFFF" font-size="14" font-weight="800" text-anchor="middle">start</text>
      <text x="1152" y="315" fill="#FFFFFF" font-size="14" font-weight="800" text-anchor="middle">gate</text>
      <text x="1251" y="315" fill="#0F172A" font-size="14" font-weight="900" text-anchor="middle">merge</text>
    </g>

    <g>
      <rect x="96" y="344" width="742" height="40" rx="20" fill="#07111F" fill-opacity="0.62" stroke="#14B8A6" stroke-opacity="0.34"/>
      <text x="124" y="370" fill="#E0F2FE" font-size="17" font-weight="800">Claude · Codex · Cursor · VS Code · Cline · OpenCode · Continue · Gemini</text>
      <text x="688" y="370" fill="#FDE68A" font-size="15" font-weight="800">runs on every tool</text>
    </g>
  </g>
</svg>
